<?xml version="1.0" encoding="UTF-8"?>
<svg id="Vrstva_1" data-name="Vrstva 1" xmlns="http://www.w3.org/2000/svg" viewBox="0 0 256 256">
  <defs>
    <style>
      .cls-1 {
        fill: #fff;
      }
    </style>
  </defs>
  <path class="cls-1" d="M128,32c-39.31,0-72.38,23.35-87.28,56.86-1,2.25.09,4.88,2.37,5.8l6.65,2.7c2.2.89,4.68-.13,5.66-2.29,12.53-27.78,39.81-47.08,72.6-47.08,25.94,0,49.06,12.72,63.5,32h-27.12c-2.42,0-4.38,1.96-4.38,4.38v7.24c0,2.42,1.96,4.38,4.38,4.38h47.24c2.42,0,4.38-1.96,4.38-4.38v-47.24c0-2.42-1.96-4.38-4.38-4.38h-7.24c-2.42,0-4.38,1.96-4.38,4.38v20.37c-17.53-20.09-43.44-32.75-72-32.75ZM206.26,158.63c-2.2-.89-4.68.13-5.66,2.29-12.53,27.78-39.81,47.08-72.6,47.08-26.22,0-49.25-12.91-63.75-32h27.37c2.42,0,4.38-1.96,4.38-4.38v-7.24c0-2.42-1.96-4.38-4.38-4.38h-47.24c-2.42,0-4.38,1.96-4.38,4.38v47.24c0,2.42,1.96,4.38,4.38,4.38h7.24c2.42,0,4.38-1.96,4.38-4.38v-20.37c17.5,19.84,43.16,32.75,72,32.75,39.31,0,72.38-23.35,87.28-56.86,1-2.25-.09-4.88-2.37-5.8l-6.65-2.7Z"/>
</svg>