<?xml version="1.0" encoding="UTF-8"?>
<svg id="Vrstva_1" data-name="Vrstva 1" xmlns="http://www.w3.org/2000/svg" viewBox="0 0 152.11 152.11">
  <defs>
    <style>
      .cls-1 {
        fill: #fff;
      }
    </style>
  </defs>
  <path class="cls-1" d="M72.95,89.17l-59.84,59.84c-1.71,1.71-4.49,1.71-6.2,0l-3.81-3.82c-1.71-1.71-1.71-4.49,0-6.2l59.84-59.84c1.71-1.71,1.71-4.49,0-6.2L3.1,13.11c-1.71-1.71-1.71-4.49,0-6.2l3.81-3.81c1.71-1.71,4.49-1.71,6.2,0l59.84,59.84c1.71,1.71,4.49,1.71,6.2,0L138.99,3.1c1.71-1.71,4.49-1.71,6.2,0l3.82,3.81c1.71,1.71,1.71,4.49,0,6.2l-59.84,59.84c-1.71,1.71-1.71,4.49,0,6.2l59.84,59.84c1.71,1.71,1.71,4.49,0,6.2l-3.82,3.82c-1.71,1.71-4.49,1.71-6.2,0l-59.84-59.84c-1.71-1.71-4.49-1.71-6.2,0Z"/>
</svg>