<?xml version="1.0" encoding="UTF-8"?>
<svg id="Keyboard-Double-Arrow-Down--Streamline-Outlined-Material" xmlns="http://www.w3.org/2000/svg" viewBox="0 0 17.41 19.25">
  <defs>
    <style>
      .cls-1 {
        fill: #fff;
        stroke: #fff;
        stroke-miterlimit: 10;
      }
    </style>
  </defs>
  <g id="keyboard-double-arrow-down">
    <path id="Vector" class="cls-1" d="M8.25,18.08L1.17,11c-.25-.25-.25-.67,0-.92l.48-.48c.25-.25.67-.25.92,0l6.14,6.14,6.14-6.14c.25-.25.67-.25.92,0l.48.48c.25.25.25.67,0,.92l-7.08,7.08c-.25.25-.67.25-.92,0ZM8.25,9.65L1.17,2.57c-.25-.25-.25-.67,0-.92l.48-.48c.25-.25.67-.25.92,0l6.14,6.14L14.85,1.17c.25-.25.67-.25.92,0l.48.48c.25.25.25.67,0,.92l-7.08,7.08c-.25.25-.67.25-.92,0Z"/>
  </g>
</svg>